<?xml version="1.0" standalone="no"?>
<!DOCTYPE svg PUBLIC "-//W3C//DTD SVG 20010904//EN"
 "http://www.w3.org/TR/2001/REC-SVG-20010904/DTD/svg10.dtd">
<svg version="1.0" xmlns="http://www.w3.org/2000/svg"
 width="190.000000pt" height="168.000000pt" viewBox="0 0 190.000000 168.000000"
 preserveAspectRatio="xMidYMid meet">
<metadata>
Created by potrace 1.10, written by Peter Selinger 2001-2011
</metadata>
<g transform="translate(0.000000,168.000000) scale(0.100000,-0.100000)"
fill="#6407a2" stroke="none">
<path d="M945 1429 c4 -5 -5 -9 -20 -9 -36 0 -134 -52 -168 -89 -25 -27 -44
-36 -69 -32 -5 0 -8 -7 -8 -17 0 -22 -87 -65 -132 -65 -18 1 -27 -1 -21 -4 10
-4 9 -8 -1 -19 -8 -8 -18 -14 -23 -14 -14 -1 -57 -45 -75 -77 -22 -38 -23
-118 -3 -157 8 -15 15 -32 15 -37 0 -5 15 -22 33 -39 25 -23 28 -28 12 -26
-11 2 -19 9 -17 15 4 19 -47 -19 -53 -39 -3 -10 -6 -107 -7 -216 -1 -189 0
-201 22 -236 12 -21 18 -38 14 -38 -4 0 1 -6 12 -14 10 -8 19 -20 19 -27 0 -7
27 -26 60 -43 33 -17 62 -34 65 -37 8 -9 43 -22 66 -25 11 -1 51 -13 90 -25
61 -20 89 -23 249 -23 145 0 193 4 245 19 36 10 82 20 104 23 21 2 47 13 57
23 11 11 26 19 34 19 8 0 29 12 46 28 17 15 35 26 39 25 5 -1 14 5 22 15 12
16 11 16 -7 3 -11 -8 -3 2 17 22 23 21 40 49 43 69 4 18 13 36 21 41 8 4 14
13 14 18 0 6 -4 8 -8 5 -5 -3 -9 1 -9 9 0 8 5 15 11 15 6 0 4 5 -4 10 -8 5
-10 10 -4 10 12 0 13 49 1 68 -5 6 -4 12 1 12 4 0 6 22 2 49 -3 27 -3 57 1 67
3 11 2 30 -2 42 -5 13 -6 28 -3 34 10 15 14 58 6 55 -4 -1 -17 8 -30 21 -18
18 -26 20 -42 12 -11 -6 -20 -8 -20 -4 0 3 -8 0 -17 -7 -15 -11 -15 -10 1 8
10 13 22 20 27 18 4 -3 10 4 14 15 4 11 11 17 17 14 6 -4 8 -2 4 4 -3 6 2 28
13 49 28 54 15 132 -25 156 -8 4 -14 15 -14 22 0 8 -8 15 -18 15 -11 0 -38 14
-60 30 -23 17 -47 30 -53 30 -5 0 -7 5 -3 12 4 6 3 8 -3 5 -5 -3 -37 18 -70
47 -34 30 -75 63 -92 76 -17 12 -29 26 -26 31 4 5 -5 9 -19 9 -14 0 -49 9 -78
19 -29 11 -75 23 -103 26 -27 4 -60 8 -73 10 -12 2 -20 0 -17 -6z m228 -77
c51 -25 107 -63 147 -100 36 -33 100 -81 142 -106 84 -51 128 -96 128 -129 0
-12 -9 -40 -19 -62 -59 -131 -282 -217 -561 -217 -347 0 -585 127 -568 303 7
67 28 87 162 153 64 31 137 77 171 106 100 86 140 101 243 96 59 -4 88 -12
155 -44z m-630 -586 c31 -20 57 -34 57 -31 0 3 10 0 23 -7 12 -7 24 -13 27
-13 3 -1 25 -7 50 -14 199 -57 477 -53 663 10 82 28 124 50 181 94 l47 36 -3
-224 c-3 -219 -3 -224 -28 -261 -50 -74 -175 -139 -331 -173 -113 -24 -346
-24 -439 0 -36 10 -74 19 -85 22 -39 9 -145 57 -145 66 0 5 -6 9 -14 9 -19 0
-75 65 -92 106 -10 25 -14 88 -14 245 l0 212 23 -20 c12 -12 48 -37 80 -57z
m77 8 c3 0 16 -6 30 -12 17 -7 20 -11 8 -11 -9 -1 -20 4 -23 9 -4 6 -10 8 -13
6 -4 -2 -19 5 -32 15 l-25 20 25 -12 c14 -8 27 -14 30 -15z m248 -71 c-10 -2
-28 -2 -40 0 -13 2 -5 4 17 4 22 1 32 -1 23 -4z"/>
<path d="M1112 1151 c-8 -5 -12 -21 -10 -37 3 -26 7 -29 38 -29 30 0 36 4 38
24 6 37 -35 62 -66 42z"/>
<path d="M823 1110 c-46 -20 -56 -47 -27 -71 23 -19 98 10 102 40 3 21 -13 51
-27 51 -3 0 -25 -9 -48 -20z"/>
<path d="M1028 999 c-10 -5 -18 -16 -18 -23 0 -18 23 -47 40 -49 8 -2 20 -6
26 -9 15 -10 52 1 58 18 8 22 -1 37 -35 57 -35 19 -47 21 -71 6z"/>
<path d="M675 583 c-6 -11 -8 -68 -5 -143 l5 -125 30 0 30 0 0 140 0 140 -25
3 c-16 2 -29 -4 -35 -15z"/>
<path d="M1292 588 c-15 -15 -16 -231 -2 -259 6 -10 19 -19 30 -19 11 0 24 9
30 19 11 21 14 229 4 255 -7 19 -45 21 -62 4z"/>
<path d="M991 551 c-10 -7 -13 -39 -13 -140 1 -73 4 -136 7 -141 9 -14 39 -12
53 2 17 17 17 259 0 276 -14 14 -28 15 -47 3z"/>
<path d="M1625 1009 c6 -30 15 -37 15 -11 0 11 -4 23 -9 27 -6 3 -8 -4 -6 -16z"/>
</g>
</svg>
